<svg width="1200" height="630" xmlns="http://www.w3.org/2000/svg">
  <defs>
    <linearGradient id="bgGradient" x1="0%" y1="0%" x2="100%" y2="100%">
      <stop offset="0%" style="stop-color:#f0f7f4"/>
      <stop offset="50%" style="stop-color:#faf8f5"/>
      <stop offset="100%" style="stop-color:#f5f0e8"/>
    </linearGradient>
    <linearGradient id="textGradient" x1="0%" y1="0%" x2="100%" y2="0%">
      <stop offset="0%" style="stop-color:#2d5a4a"/>
      <stop offset="100%" style="stop-color:#468066"/>
    </linearGradient>
  </defs>

  <!-- Background -->
  <rect width="1200" height="630" fill="url(#bgGradient)"/>

  <!-- Decorative pattern -->
  <g opacity="0.1">
    <circle cx="100" cy="100" r="80" fill="#468066"/>
    <circle cx="1100" cy="530" r="120" fill="#468066"/>
    <circle cx="1050" cy="100" r="60" fill="#8b7355"/>
  </g>

  <!-- Leaf icon -->
  <g transform="translate(540, 120)">
    <path d="M85,40C38,50 29.5,80.85 19.1,106.7L28.55,110L33.3,98.5C35.7,99.35 38.2,100 40,100C95,100 110,15 110,15C105,25 70,26.25 45,31.25C20,36.25 10,57.5 10,67.5C10,77.5 18.75,86.25 18.75,86.25C35,40 85,40 85,40Z" fill="#468066"/>
  </g>

  <!-- Main title -->
  <text x="600" y="280" text-anchor="middle" font-family="Georgia, serif" font-size="72" font-weight="bold" fill="#1a3a2f">
    The Natural Cat Litter
  </text>

  <!-- Subtitle -->
  <text x="600" y="360" text-anchor="middle" font-family="system-ui, -apple-system, sans-serif" font-size="36" fill="#5c5346">
    Chemical-Free, Plant-Based Options
  </text>

  <!-- Tagline -->
  <text x="600" y="420" text-anchor="middle" font-family="system-ui, -apple-system, sans-serif" font-size="28" fill="#468066">
    Better for your cat. Better for the planet.
  </text>

  <!-- Bottom decoration -->
  <rect x="450" y="500" width="300" height="4" rx="2" fill="#468066"/>

  <!-- URL -->
  <text x="600" y="560" text-anchor="middle" font-family="system-ui, -apple-system, sans-serif" font-size="24" fill="#8b7355">
    thenaturalcatlitter.com
  </text>
</svg>
